<svg xmlns="http://www.w3.org/2000/svg" id="uuid-5b2ae2c6-0563-4171-a2c3-7ab5aff49c37" viewBox="0 0 253 67"><defs><style>.uuid-a15a73f8-a157-4e8c-bab6-73e7f952a438{fill:#00204d;}.uuid-35c064bc-ef62-4bb3-b660-48dd25efb531,.uuid-99dcd784-33d4-4059-ac82-5b3db336bcc3,.uuid-5c20677e-1414-453a-83a8-a12fb1601b42{fill:#142343;}.uuid-458e981f-2bc1-44e0-9a27-f56c922be813{fill:#9aa2aa;}.uuid-99dcd784-33d4-4059-ac82-5b3db336bcc3{fill-rule:evenodd;}.uuid-5c20677e-1414-453a-83a8-a12fb1601b42{opacity:.6;}</style></defs><path class="uuid-99dcd784-33d4-4059-ac82-5b3db336bcc3" d="m37.68,31.1c1.53,0,2.54.84,3.01,2.22h2.3c-.57-2.66-2.6-4.33-5.32-4.33-3.24,0-5.68,2.62-5.68,6.04s2.44,5.96,5.68,5.96c2.72,0,4.69-1.74,5.32-4.33h-2.3c-.46,1.32-1.48,2.22-3.01,2.22-2.13,0-3.45-1.59-3.45-3.85s1.32-3.94,3.45-3.94"></path><path class="uuid-99dcd784-33d4-4059-ac82-5b3db336bcc3" d="m47.05,30.4h-.1s-.12-1.12-.12-1.12h-1.83v11.72h2.04v-7.42c0-1.57,1.11-2.41,2.58-2.41.32,0,.38.03.38.03v-2.15s-.13-.04-.38-.04c-.63,0-1.78.29-2.57,1.4"></path><path class="uuid-99dcd784-33d4-4059-ac82-5b3db336bcc3" d="m70.69,29c-1.89,0-3.05.84-3.55,1.4h-.1s-.12-1.12-.12-1.12h-1.9v11.72h2.13v-7.38c0-1.64,1.43-2.5,3.18-2.5,1.51,0,2.57.78,2.57,2.41v7.47h2.12v-7.61c0-3.24-2.2-4.39-4.31-4.39"></path><rect class="uuid-35c064bc-ef62-4bb3-b660-48dd25efb531" x="78" y="29" width="2" height="12"></rect><path class="uuid-99dcd784-33d4-4059-ac82-5b3db336bcc3" d="m57,38.85c-2.22,0-3.66-1.62-3.66-3.85s1.44-3.9,3.66-3.9,3.66,1.66,3.66,3.9-1.44,3.85-3.66,3.85m0-9.85c-3.42,0-6,2.58-6,6s2.58,6,6,6,6-2.58,6-6-2.58-6-6-6"></path><path class="uuid-99dcd784-33d4-4059-ac82-5b3db336bcc3" d="m86.82,33.74c-2.22-.48-2.14-1.01-2.14-1.49,0-.57.66-1.3,1.74-1.3.9,0,1.85.44,1.85,1.92h2.17c.08-2.4-1.54-3.87-4.02-3.87-2.2,0-3.99,1.5-3.99,3.34,0,2.32,1.89,3.04,3.93,3.48,2.17.46,2.35,1.12,2.35,1.59,0,.89-.92,1.64-2.2,1.64-.92,0-2.32-.57-2.32-2.27h-2.17c-.13,2.68,1.85,4.22,4.49,4.22s4.5-1.58,4.5-3.68c0-2.38-2.16-3.14-4.18-3.58"></path><path class="uuid-99dcd784-33d4-4059-ac82-5b3db336bcc3" d="m21.38,34.48h6.24l.7,1.5h-7.63l.7-1.5Zm2.96-6.46l.11-.29h.1l.11.29,2.12,4.66h-4.56l2.12-4.66Zm-.87-3.02l-7.47,16h2.38l1.46-3.23h9.31l1.46,3.23h2.38l-7.47-16h-2.06Z"></path><path class="uuid-458e981f-2bc1-44e0-9a27-f56c922be813" d="m179.15,31h-1.02v-6.56l-2.78,3.71h-.9l-2.8-3.71v6.56h-1.02v-8.4h.9l3.36,4.51,3.36-4.51h.9v8.4Zm-12.18-8.4h1.02v5.14c0,.47-.07.91-.22,1.32-.14.41-.35.76-.62,1.07-.27.3-.6.53-.98.7-.38.17-.8.25-1.28.25s-.9-.08-1.28-.25c-.38-.17-.71-.4-.98-.7-.26-.3-.47-.66-.61-1.07-.14-.41-.22-.85-.22-1.32v-5.14h1.02v5.14c0,.34.04.66.13.96.09.29.22.54.38.76.18.22.39.38.65.5.26.12.57.18.91.18s.64-.06.9-.18c.26-.12.48-.29.66-.5s.31-.47.4-.76c.09-.3.13-.62.13-.96v-5.14Zm-15.35,0h.9l5.6,6.76v-6.76h1.02v8.4h-.9l-5.6-6.7v6.7h-1.02v-8.4Zm-3.78,0h1.02v8.4h-1.02v-8.4Zm-8.38,0h6.29v.91h-2.63v7.49h-1.02v-7.49h-2.64v-.91Zm-6.72,5.33h3.62l-1.81-4.09-1.81,4.09Zm1.31-5.33h1.02l3.73,8.4h-1.07l-.96-2.16h-4.44l-.95,2.16h-1.07l3.73-8.4Zm-9.78,0h1.02v7.49h3.71v.91h-4.73v-8.4Zm-6.28.91v3.19h1.21c.55,0,1-.13,1.34-.4.35-.26.53-.65.53-1.16,0-.27-.05-.51-.14-.71-.1-.21-.23-.38-.4-.52-.17-.14-.37-.24-.6-.3-.22-.07-.47-.11-.73-.11h-1.21Zm-1.02-.91h2.23c.44,0,.84.06,1.19.17.36.1.66.26.91.48.26.22.45.48.59.8.14.31.22.68.22,1.09s-.08.76-.23,1.07c-.14.3-.34.56-.6.77-.26.21-.56.37-.92.48-.35.1-.74.16-1.15.16h-1.21v3.38h-1.02v-8.4Z"></path><path class="uuid-a15a73f8-a157-4e8c-bab6-73e7f952a438" d="m230.26,39.51v3.19h1.21c.55,0,1-.13,1.34-.4.35-.26.53-.65.53-1.16,0-.27-.05-.51-.14-.71-.1-.21-.23-.38-.4-.52s-.37-.24-.6-.3c-.22-.07-.47-.11-.73-.11h-1.21Zm-1.02-.91h2.23c.44,0,.84.06,1.19.17.36.1.66.26.91.48.26.22.45.48.59.8.14.31.22.68.22,1.09,0,.55-.13,1.02-.4,1.39-.26.37-.62.64-1.08.83l2.17,3.64h-1.2l-2.02-3.4c-.06,0-.13.01-.19.01h-1.4v3.38h-1.02v-8.4Zm-7.19,0h4.85v.91h-3.83v2.74h3.23v.91h-3.23v2.93h3.83v.91h-4.85v-8.4Zm-8.39.91v6.58h1.91c.46,0,.89-.08,1.27-.25.39-.17.73-.4,1.01-.7.28-.3.5-.64.65-1.04.16-.4.24-.83.24-1.3s-.08-.9-.24-1.3c-.15-.4-.37-.75-.65-1.04-.28-.3-.62-.53-1.01-.7-.38-.17-.81-.25-1.27-.25h-1.91Zm-1.02-.91h2.93c.6,0,1.16.11,1.67.32.51.21.96.5,1.33.88s.67.82.88,1.33c.22.51.32,1.07.32,1.67s-.11,1.16-.32,1.67c-.21.51-.5.96-.88,1.33-.38.38-.82.67-1.33.89-.51.21-1.07.31-1.67.31h-2.93v-8.4Zm-3.78,0h1.02v8.4h-1.02v-8.4Zm-5.66,8.4h-.98l-3.56-8.4h1.1l2.95,6.96,2.95-6.96h1.1l-3.56,8.4Zm-13.31-4.2c0,.48.08.92.24,1.33.16.41.38.76.66,1.07.29.3.63.53,1.02.71.4.17.84.25,1.32.25s.9-.08,1.3-.25c.4-.18.74-.41,1.03-.71.29-.3.51-.66.67-1.07.16-.41.24-.85.24-1.33s-.08-.92-.24-1.33c-.16-.41-.38-.76-.67-1.06-.28-.3-.62-.54-1.02-.71-.39-.18-.83-.26-1.31-.26s-.92.09-1.32.26c-.39.17-.73.4-1.02.71-.28.3-.5.65-.66,1.06-.16.41-.24.85-.24,1.33Zm-1.03,0c0-.61.11-1.17.32-1.69s.52-.97.9-1.36c.38-.38.84-.68,1.36-.9s1.08-.32,1.69-.32,1.17.11,1.69.32.97.52,1.36.9c.38.38.68.84.9,1.36s.32,1.08.32,1.69-.11,1.17-.32,1.69c-.22.52-.52.97-.9,1.36-.38.38-.84.68-1.36.9-.52.22-1.08.32-1.69.32s-1.17-.11-1.69-.32c-.52-.22-.97-.52-1.36-.9-.38-.38-.68-.84-.9-1.36-.22-.52-.32-1.08-.32-1.69Zm-6.3-3.29v3.19h1.21c.55,0,1-.13,1.34-.4.35-.26.53-.65.53-1.16,0-.27-.05-.51-.14-.71-.1-.21-.23-.38-.4-.52s-.37-.24-.6-.3c-.22-.07-.47-.11-.73-.11h-1.21Zm-1.02-.91h2.23c.44,0,.84.06,1.19.17.36.1.66.26.91.48.26.22.45.48.59.8.14.31.22.68.22,1.09,0,.55-.13,1.02-.4,1.39-.26.37-.62.64-1.08.83l2.17,3.64h-1.2l-2.02-3.4c-.06,0-.13.01-.19.01h-1.4v3.38h-1.02v-8.4Zm-6.28.91v3.19h1.21c.55,0,1-.13,1.34-.4.35-.26.53-.65.53-1.16,0-.27-.05-.51-.14-.71-.1-.21-.23-.38-.4-.52s-.37-.24-.6-.3c-.22-.07-.47-.11-.73-.11h-1.21Zm-1.02-.91h2.23c.44,0,.84.06,1.19.17.36.1.66.26.91.48.26.22.45.48.59.8.14.31.22.68.22,1.09s-.08.76-.23,1.07c-.14.3-.34.56-.6.77-.26.21-.56.37-.92.48-.35.1-.74.16-1.15.16h-1.21v3.38h-1.02v-8.4Zm-11.1,0h4.85v.91h-3.83v2.74h3.23v.91h-3.23v2.93h3.83v.91h-4.85v-8.4Zm-3.29,2.71c-.22-.57-.59-1.02-1.09-1.36-.5-.34-1.09-.52-1.78-.52-.48,0-.92.09-1.32.26-.39.17-.73.4-1.02.71-.28.3-.5.65-.66,1.06-.16.41-.24.85-.24,1.33s.08.92.24,1.33c.16.41.38.76.66,1.07.29.3.63.53,1.02.71.4.17.84.25,1.32.25.69,0,1.28-.17,1.78-.5.5-.34.86-.78,1.09-1.34h1.02c-.13.42-.32.8-.56,1.14-.24.34-.53.62-.86.86-.34.24-.71.43-1.13.56-.42.13-.86.19-1.33.19-.61,0-1.17-.11-1.69-.32-.52-.22-.97-.52-1.36-.9-.38-.38-.68-.84-.9-1.36-.22-.52-.32-1.08-.32-1.69s.11-1.17.32-1.69c.22-.52.52-.97.9-1.36.38-.38.84-.68,1.36-.9.52-.22,1.08-.32,1.69-.32.47,0,.92.07,1.33.2.42.13.79.32,1.13.56.34.24.62.53.86.88.25.34.44.72.56,1.14h-1.02Zm-10.56-2.71h1.02v8.4h-1.02v-8.4Zm-5.66,8.4h-.98l-3.56-8.4h1.1l2.95,6.96,2.95-6.96h1.1l-3.56,8.4Zm-10.43-7.49v3.19h1.21c.55,0,1-.13,1.34-.4.35-.26.53-.65.53-1.16,0-.27-.05-.51-.14-.71-.1-.21-.23-.38-.4-.52-.17-.14-.37-.24-.6-.3-.22-.07-.47-.11-.73-.11h-1.21Zm-1.02-.91h2.23c.44,0,.84.06,1.19.17.36.1.66.26.91.48.26.22.45.48.59.8.14.31.22.68.22,1.09,0,.55-.13,1.02-.4,1.39-.26.37-.62.64-1.08.83l2.17,3.64h-1.2l-2.02-3.4c-.06,0-.13.01-.19.01h-1.4v3.38h-1.02v-8.4Zm-7.19,0h4.85v.91h-3.83v2.74h3.23v.91h-3.23v2.93h3.83v.91h-4.85v-8.4Zm-4.78,3.77c.46.14.83.29,1.13.47.3.18.54.37.72.58.18.21.3.43.37.67.07.23.11.48.11.74,0,.33-.06.63-.19.9-.12.27-.3.51-.53.71-.22.2-.5.36-.84.47-.33.11-.7.17-1.12.17-.5,0-.94-.08-1.32-.23-.38-.15-.7-.36-.96-.62-.26-.26-.45-.57-.59-.92-.13-.35-.19-.73-.19-1.13h1.09c.03.64.21,1.13.54,1.48.34.34.82.52,1.44.52.5,0,.89-.11,1.15-.34.26-.23.4-.56.4-1,0-.18-.03-.35-.1-.5-.06-.15-.16-.29-.3-.42-.14-.13-.33-.24-.56-.35-.23-.11-.52-.22-.85-.31-.82-.24-1.45-.55-1.88-.94-.42-.38-.64-.91-.64-1.58,0-.28.06-.55.17-.82s.27-.5.48-.7c.22-.21.48-.37.79-.49.31-.13.67-.19,1.07-.19.91,0,1.6.24,2.05.71.46.46.68,1.09.68,1.88h-1c0-.34-.05-.61-.14-.83-.09-.22-.21-.38-.37-.5-.16-.13-.34-.22-.55-.26-.21-.06-.43-.08-.67-.08-.45,0-.8.11-1.07.32-.26.22-.38.5-.38.86,0,.19.02.36.07.52.05.15.14.3.29.44.15.14.36.27.64.4.27.13.63.26,1.07.38Z"></path><path class="uuid-5c20677e-1414-453a-83a8-a12fb1601b42" d="m103,17.49v32.45h1V17.49h-1Zm0,32.45v.5h1v-.5h-1Zm1-32.45v-.5h-1v.5h1Z"></path></svg>